<?xml version="1.0" encoding="utf-8"?>
<!-- Generator: Adobe Illustrator 28.1.0, SVG Export Plug-In . SVG Version: 6.00 Build 0)  -->
<svg version="1.1" id="Layer_1" xmlns="http://www.w3.org/2000/svg" xmlns:xlink="http://www.w3.org/1999/xlink" x="0px" y="0px"
	 viewBox="0 0 52.7 29.3" style="enable-background:new 0 0 52.7 29.3;" xml:space="preserve">
<style type="text/css">
	.st0{fill:#3075F4;}
</style>
<g>
	<path class="st0" d="M6.3,14.6H2.2V8.9H6c1.1,0,1.9,0.1,2.4,0.3s1,0.5,1.3,1c0.2,0.2,0.4,1.8,0.1,2.8c-0.3,0.9-1.5,1.7-1.5,2
		c0.4,0,1.1,0.4,1.9-0.3c0.7-0.7,1.9-2.8,2.2-2.8c0-0.9-0.3-1.8-0.8-2.5s-1.3-1.2-2.3-1.5c0.8-0.4,1.4-0.9,1.8-1.5
		c0.4-0.6,0.6-1.3,0.6-2c0-0.8-0.2-1.5-0.7-2.2s-1-1.2-1.8-1.5S7.5,0.1,6.2,0.1H0v16.6h6.3c0.1,0,12.8,0,12.9,0c0-0.7,0-1.3,0-2
		C19.1,14.6,6.4,14.6,6.3,14.6z M2.2,1.9h3.3c1.2,0,2,0.1,2.5,0.2S8.9,2.5,9.1,3c0.3,0.4,0.4,0.9,0.4,1.5S9.4,5.6,9.1,6
		S8.4,6.7,7.8,6.8C7.4,6.9,6.7,7,5.7,7H2.1C2.2,7,2.2,1.9,2.2,1.9z"/>
	<path class="st0" d="M22.6,9.7C22.1,9,21.4,8.5,20.5,8c-0.7-0.3-1.9-0.7-3.7-1.1s-2.9-0.8-3.3-1.2c-0.4-0.4-0.7-0.9-0.7-1.5
		c0-0.7,0.3-1.3,0.9-1.8c0.6-0.5,1.6-0.7,2.9-0.7s2.2,0.3,2.9,0.8s1,1.3,1.2,2.4l2.1-0.2c0-1-0.3-1.9-0.8-2.6
		c-0.5-0.8-1.2-1.4-2.2-1.8s-2-0.6-3.3-0.6c-1.1,0-2.1,0.2-3,0.6S11.9,1.2,11.4,2s-0.7,1.5-0.7,2.4c0,0.8,0.2,1.5,0.6,2.1
		c0.4,0.6,1,1.1,1.8,1.5c0.6,0.3,1.7,0.7,3.2,1s2.5,0.6,3,0.8c0.7,0.3,1.2,0.6,1.5,1s0.5,0.8,0.5,1.4c0,0.5-0.2,1-0.5,1.4
		s-0.8,0.8-1.4,1s-1.4,0.5-2.2,0.5c-0.9,0-1.8-0.2-2.5-0.5s-1.3-0.8-1.7-1.3c-0.3-0.4-0.4-1.2-0.5-1.7c-0.8,0-1.6,0.1-2.3,0.1
		c0.1,0.9,0.5,2,1,2.7c0.1,0.2,0.2,0.3,0.2,0.5c1.2,0,2.5,0,3.7,0c-1.2,0-2.5,0-3.7,0c0.2,0.7,0.1,1.2,1,1.5c1,0.4,3.5,0.3,5,0.3
		c1.2,0,2.3,0.1,3.2-0.4c1-0.4,1.7-1,2.2-1.8s0.8-1.6,0.7-2.6C23.4,11.1,23.1,10.4,22.6,9.7z"/>
	<path class="st0" d="M24.1,14.9V0h6.3c1.1,0,1.9,0,2.5,0.2C33.7,0.3,34.4,0.6,35,1s1,0.9,1.3,1.6s0.5,1.4,0.5,2.3
		c0,1.4-0.4,2.6-1.3,3.6S33,10,30.6,10h-4.3v6.8l-2.2-0.2C24.1,16.6,24.1,14.9,24.1,14.9z M26.3,7.9h4.3c1.4,0,2.4-0.3,3-0.8
		s0.9-1.3,0.9-2.2c0-0.7-0.2-1.3-0.5-1.8s-0.8-0.8-1.4-1C32.2,2,31.5,2,30.5,2h-4.2V7.9L26.3,7.9z"/>
	<path class="st0" d="M50.5,0h2.2v9.6c0,1.7-0.2,3-0.6,4S51,15.4,50,16s-2.3,0.9-3.9,0.9s-2.8-0.3-3.8-0.8s-1.7-1.3-2.1-2.3
		s-0.6-2.4-0.6-4.2V0h2.2v9.6c0,1.4,0.1,2.5,0.4,3.2s0.7,1.2,1.4,1.6C44.3,14.8,45,15,46,15c1.6,0,2.8-0.4,3.5-1.1s1-2.1,1-4.2
		C50.5,9.6,50.5,0,50.5,0z"/>
	<g>
		<path class="st0" d="M0,29.3V18.1h3.7c0.6,0,1.2,0,1.5,0.1c0.4,0.1,0.9,0.3,1.2,0.5C6.8,19,7,19.3,7.2,19.8s0.3,1,0.3,1.5
			c0,1-0.3,1.8-0.8,2.4s-1.5,1-2.9,1H1.2v4.5H0V29.3z M1.2,23.4h2.6c0.9,0,1.4-0.2,1.8-0.5C6,22.5,6.1,22,6.1,21.4
			c0-0.5-0.1-0.9-0.4-1.2s-0.4-0.5-0.8-0.7c-0.2-0.1-0.6-0.1-1.2-0.1H1.1L1.2,23.4L1.2,23.4z"/>
		<path class="st0" d="M8.9,23.9c0-1.9,0.4-3.3,1.3-4.4s2-1.6,3.5-1.6c0.9,0,1.8,0.2,2.5,0.7s1.3,1.2,1.7,2.1c0.4,0.9,0.6,1.9,0.6,3
			s-0.2,2.2-0.6,3c-0.4,0.9-1,1.6-1.8,2s-1.6,0.8-2.5,0.8s-1.8-0.2-2.5-0.8c-0.7-0.5-1.3-1.2-1.7-2.1C9.1,25.8,8.9,24.8,8.9,23.9z
			 M10.2,23.9c0,1.3,0.4,2.4,1,3.2s1.4,1.2,2.4,1.2s1.8-0.4,2.5-1.2c0.6-0.8,1-1.9,1-3.3c0-0.9-0.2-1.7-0.4-2.4s-0.7-1.2-1.2-1.6
			c-0.5-0.4-1.2-0.6-1.8-0.6c-0.9,0-1.8,0.4-2.4,1.1C10.7,21,10.2,22.2,10.2,23.9z"/>
		<path class="st0" d="M20.1,29.3V18.1h4.4c0.9,0,1.6,0.1,2,0.3s0.8,0.6,1.1,1.1s0.4,1.1,0.4,1.7c0,0.8-0.3,1.5-0.7,2
			s-1.2,0.9-2.1,1c0.4,0.2,0.6,0.4,0.8,0.6c0.4,0.4,0.7,0.9,1.1,1.5l1.8,3h-1.7L25.9,27c-0.4-0.7-0.7-1.2-1-1.5
			c-0.3-0.4-0.4-0.6-0.7-0.8s-0.4-0.2-0.6-0.3c-0.2,0-0.4,0-0.7,0h-1.6v5L20.1,29.3L20.1,29.3z M21.4,23.1h2.9
			c0.6,0,1.1-0.1,1.4-0.2c0.4-0.1,0.6-0.4,0.8-0.7s0.3-0.6,0.3-1c0-0.5-0.2-1-0.5-1.3c-0.4-0.3-0.9-0.5-1.6-0.5h-3.1
			C21.4,19.4,21.4,23.1,21.4,23.1z"/>
		<path class="st0" d="M32.3,29.3v-9.9H29v-1.3h7.9v1.3h-3.3v9.9C33.7,29.3,32.3,29.3,32.3,29.3z"/>
		<path class="st0" d="M36.2,29.3l3.9-11.2h1.4l4.1,11.2h-1.5l-1.2-3.4h-4.2l-1.2,3.4H36.2z M39.1,24.7h3.4l-1.1-3.1
			c-0.4-0.9-0.5-1.7-0.7-2.3c-0.1,0.7-0.3,1.4-0.5,2.1L39.1,24.7z"/>
		<path class="st0" d="M46.6,29.3V18.1h1.3V28h4.8v1.3H46.6z"/>
	</g>
</g>
</svg>
